<svg width="100" height="100" viewBox="0 0 100 100" fill="none" xmlns="http://www.w3.org/2000/svg">
<path d="M53.125 31.25V48.2305L67.2344 56.6953C67.9451 57.1221 68.4571 57.8138 68.6578 58.6182C68.8586 59.4225 68.7315 60.2737 68.3047 60.9844C67.8779 61.6951 67.1862 62.2071 66.3818 62.4078C65.5775 62.6085 64.7263 62.4815 64.0156 62.0547L48.3906 52.6797C47.9282 52.4018 47.5455 52.009 47.2799 51.5394C47.0143 51.0698 46.8748 50.5395 46.875 50V31.25C46.875 30.4212 47.2042 29.6263 47.7903 29.0403C48.3763 28.4542 49.1712 28.125 50 28.125C50.8288 28.125 51.6237 28.4542 52.2097 29.0403C52.7958 29.6263 53.125 30.4212 53.125 31.25ZM50 12.5C45.0703 12.4877 40.1871 13.4533 35.633 15.3407C31.079 17.2282 26.9444 20.0001 23.4688 23.4961C20.6289 26.3711 18.1055 29.1367 15.625 32.0312V25C15.625 24.1712 15.2958 23.3763 14.7097 22.7903C14.1237 22.2042 13.3288 21.875 12.5 21.875C11.6712 21.875 10.8763 22.2042 10.2903 22.7903C9.70424 23.3763 9.375 24.1712 9.375 25V40.625C9.375 41.4538 9.70424 42.2487 10.2903 42.8347C10.8763 43.4208 11.6712 43.75 12.5 43.75H28.125C28.9538 43.75 29.7487 43.4208 30.3347 42.8347C30.9208 42.2487 31.25 41.4538 31.25 40.625C31.25 39.7962 30.9208 39.0013 30.3347 38.4153C29.7487 37.8292 28.9538 37.5 28.125 37.5H19.1406C21.9336 34.2109 24.7148 31.1133 27.8867 27.9023C32.2299 23.5592 37.7567 20.5922 43.7764 19.3722C49.7962 18.1521 56.0421 18.7331 61.7335 21.0425C67.425 23.3519 72.3097 27.2874 75.7773 32.3571C79.2449 37.4268 81.1416 43.4059 81.2305 49.5475C81.3193 55.689 79.5964 61.7205 76.2769 66.8884C72.9573 72.0563 68.1885 76.1314 62.5662 78.6044C56.9439 81.0775 50.7175 81.8389 44.665 80.7935C38.6124 79.7481 33.0022 76.9423 28.5352 72.7266C28.2366 72.4444 27.8854 72.2238 27.5016 72.0774C27.1178 71.931 26.7089 71.8616 26.2983 71.8732C25.8877 71.8849 25.4834 71.9772 25.1085 72.1451C24.7336 72.3129 24.3954 72.553 24.1133 72.8516C23.8311 73.1501 23.6106 73.5013 23.4642 73.8851C23.3178 74.2689 23.2484 74.6778 23.26 75.0884C23.2716 75.499 23.364 75.9033 23.5318 76.2782C23.6997 76.6531 23.9397 76.9913 24.2383 77.2734C28.6893 81.4737 34.1006 84.5208 40 86.1488C45.8994 87.7768 52.1077 87.9362 58.0829 86.6131C64.0581 85.29 69.6186 82.5247 74.2793 78.5583C78.94 74.592 82.5591 69.5453 84.8208 63.8586C87.0825 58.172 87.9181 52.0182 87.2545 45.9343C86.591 39.8505 84.4486 34.0214 81.0143 28.956C77.5799 23.8905 72.958 19.7426 67.552 16.8741C62.1459 14.0057 56.1199 12.504 50 12.5Z" fill="#4510A3"/>
</svg>
