<svg width="80" height="80" viewBox="0 0 80 80" fill="none" xmlns="http://www.w3.org/2000/svg">
<path d="M67.2688 26.2313L49.7688 8.73125C49.5364 8.49916 49.2606 8.31513 48.9571 8.18966C48.6536 8.06419 48.3284 7.99974 48 8H18C16.6739 8 15.4021 8.52678 14.4645 9.46447C13.5268 10.4021 13 11.6739 13 13V68C13 69.3261 13.5268 70.5979 14.4645 71.5355C15.4021 72.4732 16.6739 73 18 73H63C64.3261 73 65.5979 72.4732 66.5355 71.5355C67.4732 70.5979 68 69.3261 68 68V28C68.0003 27.6716 67.9358 27.3464 67.8103 27.0429C67.6849 26.7394 67.5008 26.4636 67.2688 26.2313ZM49.7688 47.2688C49.5366 47.5012 49.2608 47.6856 48.9574 47.8114C48.6539 47.9372 48.3285 48.002 48 48.002C47.6715 48.002 47.3461 47.9372 47.0426 47.8114C46.7392 47.6856 46.4634 47.5012 46.2312 47.2688L43 44.0344V58C43 58.663 42.7366 59.2989 42.2678 59.7678C41.7989 60.2366 41.163 60.5 40.5 60.5C39.837 60.5 39.2011 60.2366 38.7322 59.7678C38.2634 59.2989 38 58.663 38 58V44.0344L34.7688 47.2688C34.5365 47.501 34.2607 47.6853 33.9572 47.811C33.6538 47.9367 33.3285 48.0014 33 48.0014C32.6715 48.0014 32.3462 47.9367 32.0428 47.811C31.7393 47.6853 31.4635 47.501 31.2312 47.2688C30.999 47.0365 30.8147 46.7607 30.689 46.4572C30.5633 46.1538 30.4986 45.8285 30.4986 45.5C30.4986 45.1715 30.5633 44.8462 30.689 44.5428C30.8147 44.2393 30.999 43.9635 31.2312 43.7312L38.7312 36.2312C38.9634 35.9988 39.2392 35.8144 39.5426 35.6886C39.8461 35.5628 40.1715 35.498 40.5 35.498C40.8285 35.498 41.1539 35.5628 41.4574 35.6886C41.7608 35.8144 42.0366 35.9988 42.2688 36.2312L49.7688 43.7312C50.0012 43.9634 50.1856 44.2392 50.3114 44.5426C50.4372 44.8461 50.502 45.1715 50.502 45.5C50.502 45.8285 50.4372 46.1539 50.3114 46.4574C50.1856 46.7608 50.0012 47.0366 49.7688 47.2688ZM48 28V14.25L61.75 28H48Z" fill="white"/>
</svg>
