<svg width="100" height="100" viewBox="0 0 100 100" fill="none" xmlns="http://www.w3.org/2000/svg">
<path d="M84.293 46.1601C84.1746 45.6593 83.9344 45.1954 83.5937 44.8097C83.253 44.424 82.8223 44.1284 82.3398 43.9492L59.8359 35.5078L65.5625 6.86325C65.6922 6.19771 65.6019 5.50805 65.3052 4.89834C65.0085 4.28863 64.5216 3.79195 63.9179 3.48326C63.3142 3.17457 62.6264 3.07061 61.9584 3.18707C61.2905 3.30353 60.6785 3.63409 60.2148 4.12888L16.4649 51.0039C16.1095 51.3783 15.8525 51.8349 15.7167 52.3329C15.5809 52.8309 15.5705 53.3548 15.6866 53.8578C15.8027 54.3607 16.0415 54.8271 16.3818 55.2152C16.7221 55.6034 17.1533 55.9012 17.6367 56.082L40.1484 64.5234L34.4375 93.1367C34.3078 93.8022 34.3981 94.4919 34.6948 95.1016C34.9915 95.7113 35.4784 96.208 36.0821 96.5167C36.6859 96.8254 37.3736 96.9293 38.0416 96.8129C38.7096 96.6964 39.3215 96.3659 39.7852 95.8711L83.5352 48.9961C83.8841 48.6216 84.1356 48.1671 84.2678 47.6726C84.3999 47.1781 84.4086 46.6587 84.293 46.1601ZM42.7227 83.5937L46.8125 63.1328C46.9589 62.4071 46.8429 61.6531 46.4852 61.0049C46.1275 60.3568 45.5514 59.8567 44.8594 59.5937L24.2188 51.8398L57.2734 16.4258L53.1875 36.8867C53.0411 37.6124 53.1571 38.3664 53.5148 39.0145C53.8725 39.6627 54.4486 40.1628 55.1406 40.4258L75.7656 48.1601L42.7227 83.5937Z" fill="#4510A3"/>
</svg>
