<svg width="100" height="100" viewBox="0 0 100 100" fill="none" xmlns="http://www.w3.org/2000/svg">
<path d="M90.625 81.25C90.625 82.0788 90.2958 82.8737 89.7097 83.4597C89.1237 84.0458 88.3288 84.375 87.5 84.375H12.5C11.6712 84.375 10.8763 84.0458 10.2903 83.4597C9.70424 82.8737 9.375 82.0788 9.375 81.25V18.75C9.375 17.9212 9.70424 17.1263 10.2903 16.5403C10.8763 15.9542 11.6712 15.625 12.5 15.625C13.3288 15.625 14.1237 15.9542 14.7097 16.5403C15.2958 17.1263 15.625 17.9212 15.625 18.75V61.207L35.2891 41.5391C35.5793 41.2485 35.9239 41.018 36.3033 40.8608C36.6827 40.7035 37.0893 40.6225 37.5 40.6225C37.9107 40.6225 38.3173 40.7035 38.6967 40.8608C39.0761 41.018 39.4207 41.2485 39.7109 41.5391L50 51.832L70.582 31.25H62.5C61.6712 31.25 60.8763 30.9208 60.2903 30.3347C59.7042 29.7487 59.375 28.9538 59.375 28.125C59.375 27.2962 59.7042 26.5013 60.2903 25.9153C60.8763 25.3292 61.6712 25 62.5 25H78.125C78.9538 25 79.7487 25.3292 80.3347 25.9153C80.9208 26.5013 81.25 27.2962 81.25 28.125V43.75C81.25 44.5788 80.9208 45.3737 80.3347 45.9597C79.7487 46.5458 78.9538 46.875 78.125 46.875C77.2962 46.875 76.5013 46.5458 75.9153 45.9597C75.3292 45.3737 75 44.5788 75 43.75V35.668L52.2109 58.4609C51.9207 58.7515 51.5761 58.982 51.1967 59.1393C50.8173 59.2965 50.4107 59.3775 50 59.3775C49.5893 59.3775 49.1827 59.2965 48.8033 59.1393C48.4239 58.982 48.0793 58.7515 47.7891 58.4609L37.5 48.168L15.625 70.043V78.125H87.5C88.3288 78.125 89.1237 78.4542 89.7097 79.0403C90.2958 79.6263 90.625 80.4212 90.625 81.25Z" fill="#4510A3"/>
</svg>
