<svg width="80" height="80" viewBox="0 0 80 80" fill="none" xmlns="http://www.w3.org/2000/svg">
<path d="M67.0688 18.2313L49.5688 0.731251C49.3364 0.499165 49.0606 0.31513 48.7571 0.18966C48.4536 0.0641895 48.1284 -0.000257465 47.8 7.72996e-07H17.8C16.4739 7.72996e-07 15.2022 0.526785 14.2645 1.46447C13.3268 2.40215 12.8 3.67392 12.8 5V60C12.8 61.3261 13.3268 62.5979 14.2645 63.5355C15.2022 64.4732 16.4739 65 17.8 65H62.8C64.1261 65 65.3979 64.4732 66.3355 63.5355C67.2732 62.5979 67.8 61.3261 67.8 60V20C67.8003 19.6716 67.7358 19.3464 67.6103 19.0429C67.4849 18.7394 67.3008 18.4636 67.0688 18.2313ZM49.5688 39.2688C49.3366 39.5012 49.0608 39.6856 48.7574 39.8114C48.4539 39.9372 48.1285 40.002 47.8 40.002C47.4715 40.002 47.1461 39.9372 46.8427 39.8114C46.5392 39.6856 46.2634 39.5012 46.0312 39.2688L42.8 36.0344V50C42.8 50.663 42.5366 51.2989 42.0678 51.7678C41.5989 52.2366 40.963 52.5 40.3 52.5C39.637 52.5 39.0011 52.2366 38.5322 51.7678C38.0634 51.2989 37.8 50.663 37.8 50V36.0344L34.5688 39.2688C34.3365 39.501 34.0607 39.6853 33.7572 39.811C33.4538 39.9367 33.1285 40.0014 32.8 40.0014C32.4715 40.0014 32.1462 39.9367 31.8428 39.811C31.5393 39.6853 31.2635 39.501 31.0313 39.2688C30.799 39.0365 30.6147 38.7607 30.489 38.4572C30.3633 38.1538 30.2986 37.8285 30.2986 37.5C30.2986 37.1715 30.3633 36.8462 30.489 36.5428C30.6147 36.2393 30.799 35.9635 31.0313 35.7312L38.5313 28.2312C38.7634 27.9988 39.0392 27.8144 39.3427 27.6886C39.6461 27.5628 39.9715 27.498 40.3 27.498C40.6285 27.498 40.9539 27.5628 41.2574 27.6886C41.5608 27.8144 41.8366 27.9988 42.0688 28.2312L49.5688 35.7312C49.8012 35.9634 49.9856 36.2392 50.1114 36.5426C50.2372 36.8461 50.302 37.1715 50.302 37.5C50.302 37.8285 50.2372 38.1539 50.1114 38.4574C49.9856 38.7608 49.8012 39.0366 49.5688 39.2688ZM47.8 20V6.25L61.55 20H47.8Z" fill="white"/>
</svg>
